<?xml version="1.0" encoding="utf-8"?>
<!-- Generator: Adobe Illustrator 21.0.2, SVG Export Plug-In . SVG Version: 6.00 Build 0)  -->
<svg version="1.1" id="Layer_1" xmlns="http://www.w3.org/2000/svg" xmlns:xlink="http://www.w3.org/1999/xlink" x="0px" y="0px"
	 viewBox="0 0 24 24" style="enable-background:new 0 0 24 24;" xml:space="preserve">
<style type="text/css">
	.st0{fill:#08FDD8;}
</style>
<g>
	<path class="st0" d="M22.6,12.8c-0.8-0.8-1.2-1.5-1.8-2.2c-0.7-0.8,0.5-1.3,0.2-2.7C20.5,6.2,18.4,0,11.2,0C5.2,0,1,3.9,1,9.1
		c0,2.1,0.8,4.5,2.4,6.9c1.3,1.9,0.9,5,0.4,8h11.6c0.2-0.9,0.4-2,0.8-2.7c1-1.5,3.1,0,3.9-2.6c0.3-1,0.7-2.4,0.8-3.6
		c0.5-0.1,0.8-0.3,1.2-0.4c0.5-0.2,0.7-0.5,0.7-1C23,13.5,22.9,13.1,22.6,12.8z M21.8,14.6c-0.4,0.1-0.7,0.3-1.2,0.4
		c-0.1,1.1-0.5,2.5-0.8,3.4c-0.7,2.5-2.8,1-3.7,2.5c-0.4,0.6-0.6,1.7-0.8,2.6h-11c0.5-2.9,0.6-5.9-0.7-7.7c-1.6-2.3-2.3-4.6-2.4-6.6
		c0-5,4.1-8.8,9.8-8.8c7,0,9,5.9,9.4,7.7c0.3,1.3-0.9,1.8-0.2,2.6c0.6,0.7,1,1.3,1.7,2.1c0.3,0.3,0.4,0.6,0.4,0.9
		C22.5,14.1,22.3,14.4,21.8,14.6z"/>
	<path class="st0" d="M11,8.3c-0.9,0-1.7,0.7-1.7,1.7c0,0.9,0.7,1.7,1.7,1.7s1.7-0.7,1.7-1.7C12.7,9.1,11.9,8.3,11,8.3z M11,11.6
		c-0.9,0-1.6-0.7-1.6-1.6c0-0.9,0.7-1.6,1.6-1.6c0.9,0,1.6,0.7,1.6,1.6C12.6,10.9,11.9,11.6,11,11.6z"/>
	<path class="st0" d="M14.7,8.5c-0.2-0.5,0-0.9,0.4-1.5l-1-1c-0.7,0.3-1,0.6-1.5,0.4C12,6.1,11.9,5.7,11.7,5h-1.3
		C10.1,5.7,10,6.1,9.5,6.3C9,6.6,8.6,6.3,7.9,6l-1,1c0.3,0.7,0.6,1,0.4,1.5C7.1,9,6.7,9.1,6,9.3v1.3c0.7,0.2,1.1,0.3,1.3,0.8
		c0.2,0.5,0,0.9-0.4,1.5l1,1c0.7-0.3,1-0.6,1.5-0.4v0c0.5,0.2,0.6,0.7,0.8,1.3h1.3c0.2-0.7,0.3-1.1,0.8-1.3h0c0.5-0.2,0.9,0,1.5,0.4
		l1-1c-0.3-0.7-0.6-1-0.4-1.5c0.2-0.5,0.7-0.6,1.3-0.8V9.3C15.3,9.1,14.9,9,14.7,8.5z M15.8,10.7c-0.7,0.2-1.1,0.3-1.3,0.8
		c-0.2,0.5,0,0.9,0.3,1.5l-0.9,0.9c-0.6-0.3-1-0.6-1.5-0.3h0c-0.5,0.2-0.6,0.6-0.8,1.3h-1.3c-0.2-0.7-0.3-1.1-0.8-1.3v0
		c-0.5-0.2-0.9,0-1.5,0.3L7.1,13c0.3-0.6,0.6-1,0.3-1.5c-0.2-0.5-0.6-0.6-1.3-0.8V9.4c0.7-0.2,1.1-0.3,1.3-0.8
		c0.2-0.5,0-0.9-0.3-1.5L8,6.1c0.6,0.3,1,0.6,1.5,0.3c0.5-0.2,0.6-0.6,0.8-1.3h1.3c0.2,0.7,0.3,1.1,0.8,1.3c0.5,0.2,0.9,0,1.5-0.3
		l0.9,0.9c-0.3,0.6-0.6,1-0.3,1.5c0.2,0.5,0.6,0.6,1.3,0.8V10.7z"/>
</g>
</svg>
