<?xml version="1.0" encoding="utf-8"?>
<!-- Generator: Adobe Illustrator 21.0.2, SVG Export Plug-In . SVG Version: 6.00 Build 0)  -->
<svg version="1.1" xmlns="http://www.w3.org/2000/svg" xmlns:xlink="http://www.w3.org/1999/xlink" x="0px" y="0px"
	 viewBox="0 0 24 24" style="enable-background:new 0 0 24 24;" xml:space="preserve">
<style type="text/css">
	.st0{fill:#08FDD8;}
</style>
<g id="Layer_1">
	<path class="st0" d="M12,6c5.7,0,9.7,3.6,11.4,5.6C21.8,13.8,17.8,18,12,18c-5.3,0-9.6-4.3-11.4-6.5C2.4,9.5,6.4,6,12,6z M12,5
		C4.4,5,0,11.6,0,11.6S4.8,19,12,19c7.7,0,12-7.4,12-7.4S19.7,5,12,5z M12,8.5c1.9,0,3.5,1.6,3.5,3.5s-1.6,3.5-3.5,3.5
		S8.5,13.9,8.5,12S10.1,8.5,12,8.5z M12,8c-2.2,0-4,1.8-4,4c0,2.2,1.8,4,4,4s4-1.8,4-4C16,9.8,14.2,8,12,8z"/>
</g>
<g id="Layer_2">
	<path class="st0" d="M13.6,10.7c-0.1,0.1-0.3,0.2-0.5,0.2c-0.4,0-0.7-0.3-0.7-0.7c0-0.1,0-0.2,0.1-0.3c-0.2,0-0.3-0.1-0.5-0.1
		c-1.2,0-2.1,1-2.1,2.1s1,2.1,2.1,2.1s2.1-1,2.1-2.1C14,11.5,13.8,11.1,13.6,10.7z"/>
</g>
</svg>
