<?xml version="1.0" encoding="utf-8"?>
<!-- Generator: Adobe Illustrator 21.0.2, SVG Export Plug-In . SVG Version: 6.00 Build 0)  -->
<svg version="1.1" xmlns="http://www.w3.org/2000/svg" xmlns:xlink="http://www.w3.org/1999/xlink" x="0px" y="0px"
	 viewBox="0 0 20 20" style="enable-background:new 0 0 20 20;" xml:space="preserve">
<style type="text/css">
	.st0{fill:#232323;}
	.st1{fill:#00FF6C;}
</style>
<g id="Layer_1">
	<g>
		<path class="st0" d="M16.3,10c0-3.4-2.9-6.2-6.2-6.2c-3.3,0-6.2,2.8-6.2,6.2c0,3.4,2.9,6.2,6.3,6.2C13.4,16.3,16.3,13.4,16.3,10z"
			/>
		<path class="st0" d="M16.3,10c0.1,3.4-2.9,6.2-6.2,6.2c-3.4,0-6.3-2.8-6.3-6.2c0-3.5,2.9-6.2,6.2-6.2C13.4,3.8,16.3,6.6,16.3,10z
			 M12.4,9.3c0-0.2,0-0.3,0-0.5c-0.4-1.7-2.4-2.4-3.8-1.3C8,8,7.7,8.6,7.7,9.3c0,0.4,0.1,0.8,0.3,1.1c0.5,1.1,1.2,2.1,2,3.1
			c0,0.1,0.1,0,0.1,0c0.2-0.2,0.4-0.5,0.6-0.8c0.5-0.7,1-1.4,1.4-2.3C12.3,10.1,12.4,9.7,12.4,9.3z"/>
		<path class="st0" d="M12.4,9.3c0,0.4-0.1,0.8-0.3,1.2c-0.3,0.8-0.8,1.6-1.4,2.3c-0.2,0.3-0.4,0.5-0.6,0.8c0,0.1-0.1,0.1-0.1,0
			c-0.8-0.9-1.5-1.9-2-3.1c-0.1-0.4-0.3-0.7-0.3-1.1C7.7,8.6,8,8,8.6,7.5c1.4-1.1,3.4-0.4,3.8,1.3C12.4,8.9,12.4,9.1,12.4,9.3z
			 M10.1,10.1c0.5,0,0.8-0.4,0.8-0.8c0-0.5-0.4-0.8-0.8-0.8c-0.5,0-0.8,0.4-0.8,0.8C9.2,9.7,9.6,10.1,10.1,10.1z"/>
		<path class="st0" d="M10.1,10.1c-0.5,0-0.8-0.4-0.8-0.8c0-0.5,0.4-0.8,0.8-0.8c0.5,0,0.8,0.4,0.8,0.8
			C10.9,9.7,10.5,10.1,10.1,10.1z"/>
	</g>
</g>
<g id="Layer_2">
	<g>
		<path class="st1" d="M12.4,9.3c0-0.2,0-0.3,0-0.5c-0.4-1.7-2.4-2.4-3.8-1.3C8,8,7.7,8.6,7.7,9.3c0,0.4,0.1,0.8,0.3,1.1
			c0.5,1.1,1.2,2.1,2,3.1c0,0.1,0.1,0,0.1,0c0.2-0.2,0.4-0.5,0.6-0.8c0.5-0.7,1-1.4,1.4-2.3C12.3,10.1,12.4,9.7,12.4,9.3z"/>
		<path class="st1" d="M12.4,9.3c0,0.4-0.1,0.8-0.3,1.2c-0.3,0.8-0.8,1.6-1.4,2.3c-0.2,0.3-0.4,0.5-0.6,0.8c0,0.1-0.1,0.1-0.1,0
			c-0.8-0.9-1.5-1.9-2-3.1c-0.1-0.4-0.3-0.7-0.3-1.1C7.7,8.6,8,8,8.6,7.5c1.4-1.1,3.4-0.4,3.8,1.3C12.4,8.9,12.4,9.1,12.4,9.3z
			 M10.1,10.1c0.5,0,0.8-0.4,0.8-0.8c0-0.5-0.4-0.8-0.8-0.8c-0.5,0-0.8,0.4-0.8,0.8C9.2,9.7,9.6,10.1,10.1,10.1z"/>
		<path class="st0" d="M10.1,10.1c-0.5,0-0.8-0.4-0.8-0.8c0-0.5,0.4-0.8,0.8-0.8c0.5,0,0.8,0.4,0.8,0.8
			C10.9,9.7,10.5,10.1,10.1,10.1z"/>
	</g>
</g>
</svg>
