<?xml version="1.0" encoding="utf-8"?>
<!-- Generator: Adobe Illustrator 21.0.2, SVG Export Plug-In . SVG Version: 6.00 Build 0)  -->
<svg version="1.1" id="Layer_1" xmlns="http://www.w3.org/2000/svg" xmlns:xlink="http://www.w3.org/1999/xlink" x="0px" y="0px"
	 viewBox="0 0 24 24" style="enable-background:new 0 0 24 24;" xml:space="preserve">
<style type="text/css">
	.st0{fill:#00FF6C;}
	.st1{fill:#232323;}
	.st2{fill:#FF0000;}
</style>
<g id="Layer_1_1_">
	<path class="st0" d="M12,20.3c-0.7,0-1.3-0.6-1.3-1.3s0.6-1.3,1.3-1.3s1.3,0.6,1.3,1.3S12.7,20.3,12,20.3z M8,2.6
		C6.9,2.6,6.6,3,6.6,4.1v14.1c0,2.2,1.9,3.2,5.4,3.2s5.4-0.5,5.4-2.8v-14c0-1.1-0.3-1.9-1.4-1.9C16,2.6,8,2.6,8,2.6z M16.5,16.4h-9
		V5.5h8.9L16.5,16.4z"/>
</g>
<g id="Layer_4">
	<path class="st1" d="M8,2C6.9,2,6,2.9,6,4v14.7c0,2.2,2.5,3.3,6,3.3s6-1.1,6-3.3V4c0-1.1-0.9-2-2-2H8z M12,20.3
		c-0.7,0-1.3-0.6-1.3-1.3c0-0.7,0.6-1.3,1.3-1.3s1.3,0.6,1.3,1.3C13.3,19.7,12.7,20.3,12,20.3z M16.4,16.4H7.6v-11h8.8V16.4z"/>
	<path class="st1" d="M8,2C6.9,2,6,2.9,6,4v14.7c0,2.2,2.5,3.3,6,3.3s6-0.6,6-3.3V4c0-1.1-0.9-2-2-2H8z M12,20c-0.6,0-1-0.4-1-1
		s0.4-1,1-1s1,0.4,1,1S12.6,20,12,20z M16,16H8V6h8V16z"/>
	<path class="st0" d="M12,20.3c-0.7,0-1.3-0.6-1.3-1.3s0.6-1.3,1.3-1.3s1.3,0.6,1.3,1.3S12.7,20.3,12,20.3z M8,2.6
		C6.9,2.6,6.6,3,6.6,4.1v14.1c0,2.2,1.9,3.2,5.4,3.2s5.4-0.5,5.4-2.8v-14c0-1.1-0.3-1.9-1.4-1.9C16,2.6,8,2.6,8,2.6z M16.5,16.4h-9
		V5.5h8.9L16.5,16.4z"/>
</g>
<g id="Layer_2">
	<path class="st0" d="M3.2,7.7C2.5,8.4,2,9.4,2,10.5s0.4,2,1.1,2.8L4,12.4c-0.5-0.5-0.8-1.2-0.8-1.9S3.5,9,4,8.5L3.2,7.7z M1.7,6.3
		C0.7,7.4,0,8.8,0,10.5c0,1.6,0.7,3.1,1.7,4.2l0.8-0.8c-0.9-0.9-1.4-2.1-1.4-3.4S1.6,8,2.5,7.1C2.6,7.1,1.7,6.3,1.7,6.3z"/>
</g>
<g id="Layer_3">
	<path class="st2" d="M20,8.5c0.5,0.5,0.8,1.2,0.8,1.9c0,0.8-0.3,1.4-0.8,1.9l0.8,0.8c0.7-0.7,1.1-1.7,1.1-2.8s-0.4-2-1.1-2.7
		C20.8,7.7,20,8.5,20,8.5z M21.4,7.1c0.9,0.9,1.4,2,1.4,3.4c0,1.3-0.5,2.5-1.4,3.4l0.8,0.8c1.1-1.1,1.7-2.6,1.7-4.2
		s-0.7-3.1-1.7-4.2C22.3,6.3,21.4,7.1,21.4,7.1z"/>
</g>
</svg>
